<svg width="20" height="21" viewBox="0 0 20 21" fill="none" xmlns="http://www.w3.org/2000/svg">
<path fill-rule="evenodd" clip-rule="evenodd" d="M19.6303 10.4958C19.6303 10.9944 19.5936 11.4826 19.5148 11.9576C19.4676 12.27 19.4072 12.577 19.3232 12.8841C19.2865 13.0337 19.2445 13.1859 19.1973 13.3303C18.8771 14.3722 18.3784 15.3355 17.7354 16.1911C17.465 16.5585 17.1632 16.9023 16.843 17.2199C16.5779 17.485 16.3024 17.7317 16.011 17.9548C15.3496 18.485 14.6148 18.918 13.8248 19.2566C12.6857 19.7395 11.4338 20.002 10.1215 20.002C9.79604 20.002 9.47847 19.9836 9.16352 19.9547C8.7121 19.9075 8.27117 19.8287 7.83812 19.7211C7.40506 19.6056 6.97726 19.4692 6.56257 19.2986C6.66493 19.233 6.70693 19.1595 6.77254 19.0755C6.79616 19.0519 6.81453 19.0282 6.8329 19.0099C6.86965 18.9731 6.89852 18.9442 6.93001 18.9075C6.97725 18.8655 7.02712 18.8235 7.06124 18.7763C7.12161 18.729 7.17672 18.6739 7.22397 18.6136C7.24759 18.5952 7.27121 18.5768 7.28958 18.5584C7.33682 18.5164 7.37882 18.4692 7.42081 18.4193C7.51004 18.3354 7.68589 18.1726 7.68589 18.1674C7.97984 17.8236 8.10844 17.6976 8.38927 17.3853C8.32366 17.1674 8.20293 16.9102 8.0402 16.6268L11.376 15.5743C11.4128 15.5612 11.4653 15.5559 11.5335 15.5454C12.3471 15.4562 15.2237 15.388 14.5255 14.3906C14.2001 13.9208 12.9901 14.6242 11.5939 14.2148C11.8773 13.3539 12.6043 13.3959 13.6122 13.2148C15.0032 12.9629 16.5438 12.5954 16.0032 11.7346C17.1107 11.4826 17.074 10.4275 16.4178 10.4879C15.9533 10.5299 15.2315 10.5955 14.5281 10.6506C13.8405 10.7057 13.1739 10.753 12.7749 10.7661C12.8117 9.47743 12.6122 9.13361 11.1083 9.27796C9.96402 9.38557 8.53625 9.88686 7.58615 9.80287C7.21347 9.76613 7.014 9.29108 6.95363 8.79241C6.94838 8.73205 6.94051 8.67693 6.93526 8.62444C6.8329 7.48538 7.36832 6.44605 7.24234 5.45658C7.21347 5.20462 7.11636 4.97366 7.03762 4.77682C6.56257 3.64563 6.21876 3.92908 6.14527 4.66134C6.02979 5.76366 5.90381 6.73212 5.52587 7.77933C5.14531 8.81603 4.68863 9.72413 4.38156 10.8133C4.31594 11.0548 4.25558 11.2963 4.20571 11.543C4.11647 12.018 3.88551 12.3986 3.66505 12.7161C3.50757 12.6558 3.35272 12.6085 3.19525 12.5665C3.10601 12.7345 2.93017 12.9812 2.71233 13.2594C2.66509 13.3067 2.62834 13.3565 2.58635 13.4038C2.52073 13.4641 2.46037 13.5298 2.40525 13.6085C2.38688 13.6216 2.36851 13.6374 2.35014 13.6557L2.33176 13.6741C2.31864 13.6794 2.31339 13.6925 2.30814 13.703C2.26615 13.7397 2.2294 13.787 2.19266 13.8342C2.15592 13.8631 2.11918 13.8998 2.08506 13.9366C2.02994 13.9838 1.9827 14.0442 1.9407 14.0993C1.9407 14.1045 1.9407 14.1045 1.9407 14.1045C1.93546 14.1045 1.93545 14.0993 1.93545 14.0993C1.90658 14.1282 1.88034 14.1597 1.85672 14.1885C1.84359 14.2017 1.83309 14.2122 1.82785 14.2305C1.8226 14.2358 1.81473 14.2358 1.81473 14.2436C1.80948 14.2489 1.8016 14.2568 1.8016 14.262C1.78848 14.2751 1.77273 14.2909 1.75961 14.3171C1.75436 14.3224 1.74649 14.3355 1.73599 14.346C1.6625 14.4116 1.60476 14.4851 1.55489 14.5691C1.54964 14.5743 1.54964 14.5822 1.54177 14.5875C0.945991 13.346 0.607422 11.9629 0.607422 10.4984C0.607422 5.24924 4.86448 0.992189 10.1136 0.992189C15.3733 0.989564 19.6303 5.24662 19.6303 10.4958Z" fill="black"/>
</svg>
