<svg width="157" height="21" viewBox="0 0 157 21" fill="none" xmlns="http://www.w3.org/2000/svg">
<path fill-rule="evenodd" clip-rule="evenodd" d="M59.8434 19.7206C59.5757 19.6498 59.3132 19.5658 59.0508 19.4766C59.3132 19.5658 59.5731 19.6524 59.8434 19.7206Z" fill="black"/>
<path fill-rule="evenodd" clip-rule="evenodd" d="M59.0501 19.4777C58.911 19.4305 58.7745 19.3806 58.6406 19.3281C58.7771 19.3806 58.9136 19.4305 59.0501 19.4777Z" fill="black"/>
<path fill-rule="evenodd" clip-rule="evenodd" d="M58.5664 19.2995C58.569 19.2995 58.569 19.2969 58.5716 19.2969C58.5952 19.3074 58.6188 19.3178 58.6424 19.3283C58.6162 19.3178 58.59 19.31 58.5664 19.2995Z" fill="black"/>
<path d="M14.4535 7.61916C14.4535 11.6767 11.7318 14.0074 7.85534 14.0074H4.45127V19.6633H0V1.33594H7.85534C11.7292 1.33594 14.4535 3.56157 14.4535 7.61916ZM9.94975 7.67165C9.94975 6.28325 9.19125 5.57724 7.67162 5.57724H4.45127V9.76606H7.67162C9.19125 9.76606 9.94975 9.06005 9.94975 7.67165Z" fill="black"/>
<path d="M26.4185 15.8656H19.5579L18.2482 19.6633H13.5371L20.1878 1.33594H25.7912L32.4419 19.6633H27.7282L26.4185 15.8656ZM24.9514 11.6243L22.9882 5.91581L21.025 11.6243H24.9514Z" fill="black"/>
<path d="M50.8199 1.33594V19.6633H45.7676L38.8807 8.11521L39.2481 11.9891V19.6607H34.7969V1.33594H39.8492L46.7098 12.8841L46.3686 9.00756V1.33594H50.8199Z" fill="black"/>
<path d="M103.015 15.8656H96.1542L94.8446 19.6633H90.1309L96.7815 1.33594H102.385L109.036 19.6633H104.322L103.015 15.8656ZM101.548 11.6243L99.5846 5.91581L97.6214 11.6243H101.548Z" fill="black"/>
<path d="M80.4256 13.3014H79.0372V19.6633H74.5859V1.33594H82.7562C86.6301 1.33594 89.0395 3.64031 89.0395 7.46169C89.0395 10.3933 87.6248 12.1492 85.3729 12.8814L90.1916 19.6633H84.7456L80.4256 13.3014ZM82.2576 5.57724H79.0372V9.40125H82.2576C83.8034 9.40125 84.5357 8.77397 84.5357 7.5168C84.5357 6.23076 83.7509 5.57724 82.2576 5.57724Z" fill="black"/>
<path d="M129.878 1.33594V19.6633H125.427V7.56667L120.844 14.5585H120.424L115.842 7.56667V19.6633H111.391V1.33594H116.443L120.632 7.61916L124.821 1.33594H129.878Z" fill="black"/>
<path d="M132.516 1.33594H136.967V19.6633H132.516V1.33594Z" fill="black"/>
<path d="M151.211 19.6633L145.082 11.3618V19.6633H140.631V1.33594H145.082V9.13879L150.817 1.33594H156.289L149.691 10.186L156.761 19.6633H151.211Z" fill="black"/>
<path fill-rule="evenodd" clip-rule="evenodd" d="M71.6303 10.4958C71.6303 10.9944 71.5936 11.4826 71.5148 11.9576C71.4676 12.27 71.4072 12.577 71.3232 12.8841C71.2865 13.0337 71.2445 13.1859 71.1973 13.3303C70.8771 14.3722 70.3784 15.3355 69.7354 16.1911C69.465 16.5585 69.1632 16.9023 68.843 17.2199C68.5779 17.485 68.3024 17.7317 68.011 17.9548C67.3496 18.485 66.6148 18.918 65.8248 19.2566C64.6857 19.7395 63.4338 20.002 62.1215 20.002C61.796 20.002 61.4785 19.9836 61.1635 19.9547C60.7121 19.9075 60.2712 19.8287 59.8381 19.7211C59.4051 19.6056 58.9773 19.4692 58.5626 19.2986C58.6649 19.233 58.7069 19.1595 58.7725 19.0755C58.7962 19.0519 58.8145 19.0282 58.8329 19.0099C58.8696 18.9731 58.8985 18.9443 58.93 18.9075C58.9773 18.8655 59.0271 18.8235 59.0612 18.7763C59.1216 18.729 59.1767 18.6739 59.224 18.6136C59.2476 18.5952 59.2712 18.5768 59.2896 18.5584C59.3368 18.5164 59.3788 18.4692 59.4208 18.4193C59.51 18.3354 59.6859 18.1726 59.6859 18.1674C59.9798 17.8236 60.1084 17.6976 60.3893 17.3853C60.3237 17.1674 60.2029 16.9102 60.0402 16.6268L63.376 15.5743C63.4128 15.5612 63.4653 15.5559 63.5335 15.5454C64.3471 15.4562 67.2237 15.388 66.5255 14.3906C66.2001 13.9208 64.9901 14.6242 63.5939 14.2148C63.8773 13.3539 64.6043 13.3959 65.6122 13.2148C67.0032 12.9629 68.5438 12.5954 68.0032 11.7346C69.1107 11.4826 69.074 10.4275 68.4178 10.4879C67.9533 10.5299 67.2315 10.5955 66.5281 10.6506C65.8405 10.7057 65.1739 10.753 64.7749 10.7661C64.8117 9.47743 64.6122 9.13361 63.1083 9.27796C61.964 9.38556 60.5362 9.88686 59.5862 9.80287C59.2135 9.76613 59.014 9.29108 58.9536 8.79241C58.9484 8.73205 58.9405 8.67693 58.9353 8.62444C58.8329 7.48538 59.3683 6.44605 59.2423 5.45658C59.2135 5.20462 59.1164 4.97366 59.0376 4.77682C58.5626 3.64563 58.2188 3.92908 58.1453 4.66134C58.0298 5.76366 57.9038 6.73212 57.5259 7.77933C57.1453 8.81603 56.6886 9.72413 56.3816 10.8133C56.3159 11.0548 56.2556 11.2963 56.2057 11.543C56.1165 12.018 55.8855 12.3986 55.665 12.7161C55.5076 12.6558 55.3527 12.6085 55.1952 12.5665C55.106 12.7345 54.9302 12.9812 54.7123 13.2594C54.6651 13.3067 54.6283 13.3565 54.5863 13.4038C54.5207 13.4641 54.4604 13.5298 54.4053 13.6085C54.3869 13.6216 54.3685 13.6374 54.3501 13.6557L54.3318 13.6741C54.3186 13.6794 54.3134 13.6925 54.3081 13.703C54.2661 13.7397 54.2294 13.787 54.1927 13.8342C54.1559 13.8631 54.1192 13.8998 54.0851 13.9366C54.0299 13.9838 53.9827 14.0442 53.9407 14.0993C53.9407 14.1045 53.9407 14.1045 53.9407 14.1045C53.9355 14.1045 53.9355 14.0993 53.9355 14.0993C53.9066 14.1282 53.8803 14.1597 53.8567 14.1885C53.8436 14.2017 53.8331 14.2122 53.8278 14.2305C53.8226 14.2358 53.8147 14.2358 53.8147 14.2436C53.8095 14.2489 53.8016 14.2568 53.8016 14.262C53.7885 14.2751 53.7727 14.2909 53.7596 14.3171C53.7544 14.3224 53.7465 14.3355 53.736 14.346C53.6625 14.4116 53.6048 14.4851 53.5549 14.5691C53.5496 14.5743 53.5496 14.5822 53.5418 14.5875C52.946 13.346 52.6074 11.9629 52.6074 10.4984C52.6074 5.24924 56.8645 0.992189 62.1136 0.992189C67.3733 0.989564 71.6303 5.24662 71.6303 10.4958Z" fill="black"/>
</svg>
