<svg width="32" height="32" viewBox="0 0 32 32" fill="none" xmlns="http://www.w3.org/2000/svg">
<path fill-rule="evenodd" clip-rule="evenodd" d="M32 15.9978C32 16.8372 31.9382 17.659 31.8057 18.4587C31.7263 18.9844 31.6247 19.5013 31.4835 20.0182C31.4216 20.2701 31.351 20.5263 31.2715 20.7693C30.7329 22.5233 29.894 24.1447 28.8124 25.585C28.3576 26.2035 27.8499 26.7823 27.3113 27.3169C26.8653 27.7631 26.4018 28.1784 25.9117 28.5539C24.7991 29.4464 23.5629 30.1753 22.234 30.7453C20.3179 31.5582 18.2119 32 16.0044 32C15.457 32 14.9227 31.9691 14.3929 31.9205C13.6336 31.841 12.8918 31.7084 12.1634 31.5273C11.4349 31.3329 10.7152 31.1031 10.0177 30.816C10.1898 30.7055 10.2605 30.5818 10.3709 30.4404C10.4106 30.4007 10.4415 30.3609 10.4724 30.33C10.5342 30.2681 10.5828 30.2195 10.6358 30.1577C10.7152 30.087 10.7991 30.0163 10.8565 29.9368C10.9581 29.8572 11.0508 29.7645 11.1302 29.6628C11.17 29.6319 11.2097 29.601 11.2406 29.5701C11.3201 29.4994 11.3907 29.4199 11.4614 29.3359C11.6115 29.1945 11.9073 28.9206 11.9073 28.9118C12.4018 28.333 12.6181 28.1209 13.0905 27.5952C12.9801 27.2285 12.777 26.7955 12.5033 26.3184L18.1148 24.5467C18.1766 24.5246 18.2649 24.5158 18.3797 24.4981C19.7483 24.3479 24.5872 24.2331 23.4128 22.5542C22.8654 21.7634 20.83 22.9474 18.4812 22.2582C18.9581 20.8091 20.181 20.8797 21.8764 20.5749C24.2163 20.1508 26.8079 19.5322 25.8985 18.0831C27.7616 17.659 27.6998 15.8829 26.596 15.9845C25.8146 16.0552 24.6004 16.1657 23.4172 16.2585C22.2605 16.3512 21.1391 16.4308 20.468 16.4529C20.5298 14.2836 20.1943 13.7048 17.6645 13.9478C15.7395 14.129 13.3377 14.9728 11.7395 14.8314C11.1126 14.7696 10.777 13.9699 10.6755 13.1305C10.6667 13.0289 10.6534 12.9361 10.6446 12.8477C10.4724 10.9303 11.3731 9.18073 11.1611 7.51512C11.1126 7.09099 10.9492 6.7022 10.8168 6.37084C10.0177 4.46666 9.4393 4.94381 9.31568 6.17645C9.12142 8.03203 8.9095 9.6623 8.27373 11.4251C7.63356 13.1702 6.86535 14.6989 6.34879 16.5324C6.23841 16.9388 6.13687 17.3453 6.05298 17.7606C5.90287 18.5603 5.51435 19.2009 5.14349 19.7355C4.87858 19.6339 4.6181 19.5543 4.3532 19.4836C4.20309 19.7664 3.90729 20.1817 3.54084 20.65C3.46137 20.7295 3.39956 20.8135 3.32892 20.893C3.21854 20.9946 3.117 21.1051 3.02429 21.2376C2.99338 21.2597 2.96247 21.2862 2.93157 21.3171L2.90066 21.3481C2.87858 21.3569 2.86976 21.379 2.86093 21.3967C2.79029 21.4585 2.72847 21.538 2.66666 21.6176C2.60485 21.6662 2.54305 21.728 2.48565 21.7899C2.39294 21.8694 2.31347 21.971 2.24283 22.0638C2.24283 22.0726 2.24283 22.0726 2.24283 22.0726C2.234 22.0726 2.23399 22.0638 2.23399 22.0638C2.18543 22.1124 2.14128 22.1654 2.10154 22.214C2.07947 22.2361 2.06181 22.2538 2.05298 22.2847C2.04415 22.2935 2.03091 22.2935 2.03091 22.3068C2.02208 22.3156 2.00883 22.3289 2.00883 22.3377C1.98676 22.3598 1.96026 22.3863 1.93819 22.4305C1.92936 22.4393 1.91612 22.4614 1.89846 22.4791C1.77484 22.5895 1.6777 22.7132 1.59382 22.8546C1.58499 22.8635 1.58499 22.8767 1.57174 22.8855C0.569535 20.7958 0 18.4675 0 16.0022C0 7.16609 7.16115 2.04178e-06 15.9912 2.04178e-06C24.8389 -0.00441602 32 7.16168 32 15.9978Z" fill="black"/>
</svg>
